PathFileType	4	(X/Y/Z)	C:/Users/beibeiliu/ov580/test_trc/User3\out2_training_dense_right.trc
DataRate	CameraRate	NumFrames	NumMarkers	Units	OrigDataRate	OrigDataStartFrame	OrigNumFrames
120	120	12	19	mm	120	313	500
Frame#	Time	ThumbCMC			ThumbMCP			ThumbIP			ThumbTip			IndexMCP			IndexPIP			IndexTip			MiddleMCP			MiddlePIP			MiddleTip			RingMCP			RingPIP			RingTip			PinkyMCP			PinkyPIP			PinkyTip			BackHand1			BackHand2			BackHand3	
		X0	Y0	Z0	X1	Y1	Z1	X2	Y2	Z2	X3	Y3	Z3	X4	Y4	Z4	X5	Y5	Z5	X6	Y6	Z6	X7	Y7	Z7	X8	Y8	Z8	X9	Y9	Z9	X10	Y10	Z10	X11	Y11	Z11	X12	Y12	Z12	X13	Y13	Z13	X14	Y14	Z14	X15	Y15	Z15	X16	Y16	Z16	X17	Y17	Z17	X18	Y18	Z18	
312	2.6	153.832	51.0974	17.6246	137.989	65.3357	-2.9395	122.95	81.1543	-25.3989	108.975	87.0414	-42.6108	155.264	31.2233	-59.6643	147.783	32.7428	-85.3714	137.728	34.6225	-105.826	160.116	0.887439	-59.8484	153.323	-2.90089	-88.3865	138.467	-7.25308	-115.636	152.663	-24.2161	-48.6241	142.417	-31.3612	-70.2235	121.83	-38.3628	-92.8676	136.985	-41.4078	-26.0138	117.479	-49.5465	-37.1381	90.9452	-55.5762	-44.1891	174.39	-13.8923	0.693043	179.885	-5.88318	25.0167	178.455	24.3499	3.25327	
313	2.60833	154.433	46.5181	15.6824	135.583	64.1583	-1.87106	118.659	74.6106	-24.2058	100.698	75.5529	-43.0244	160.673	25.1355	-56.0617	151.642	34.3922	-85.1103	135.796	34.2278	-105.102	166.533	-5.79008	-58.1593	158.035	-7.26445	-87.5422	136.211	-8.34535	-113.701	157.511	-26.4464	-43.2985	145.495	-33.8617	-69.9957	119.322	-36.2106	-86.1786	138.147	-42.8368	-26.0652	116.476	-46.8097	-40.0322	91.0533	-47.0532	-41.4036	174.155	-13.836	-1.50675	182.187	-13.0394	32.0763	180.003	18.7829	7.19474	
314	2.61667	155.419	48.8293	19.9849	133.574	57.6608	-0.345202	113.576	61.8638	-27.8789	96.0739	54.8276	-44.1719	166.516	27.2291	-57.3562	157.21	33.7942	-83.3169	132.667	32.5726	-100.07	172.146	-3.22799	-56.3764	161.47	-5.3379	-89.7833	134.694	-10.253	-106.344	161.939	-25.2497	-45.3169	148.995	-29.7196	-70.7455	116.783	-28.0095	-81.8008	143.507	-38.3055	-26.4385	120.308	-43.3118	-41.1198	94.7387	-34.0896	-43.4097	176.267	-18.0098	0.525362	182.051	-10.133	29.5543	181.953	20.2308	8.9407	
315	2.625	156.292	44.4761	21.5102	132.196	54.9432	-0.737714	112.032	54.5965	-25.4397	93.5515	42.5223	-42.7542	169.327	25.3679	-54.596	159.547	29.6722	-82.0487	126.928	33.9845	-95.2939	174.977	-1.69121	-53.6813	163.834	-7.46211	-87.4249	132.11	-3.4159	-100.462	164.946	-26.1778	-46.9468	150.392	-29.5597	-69.6522	115.785	-22.0242	-74.9257	143.194	-40.7096	-29.7036	120.05	-39.1364	-41.4296	92.9337	-25.6188	-34.6977	178.671	-16.8191	0.864147	182.6	-13.1088	32.7708	185.544	17.5552	8.86989	
316	2.63333	158.312	45.3814	21.3251	133.037	51.1128	-3.44605	112.394	53.0981	-24.0538	95.4248	33.0343	-40.4551	171.014	28.5571	-56.6024	155.724	34.1852	-83.2067	126.349	33.0664	-89.1927	176.119	-0.215825	-55.5192	166.186	-4.93892	-84.4972	128.063	-3.58793	-94.1645	164.427	-22.7289	-46.0484	146.999	-29.6813	-69.8733	112.248	-20.9187	-67.349	141.815	-38.2365	-29.8089	120.306	-38.1158	-40.2387	94.2216	-19.8753	-30.3073	179.121	-16.7118	6.0411	185.332	-14.5473	35.5816	186.864	19.1616	9.18317	
317	2.64167	159.279	44.7275	19.2413	134.475	55.0884	-5.70926	112.514	52.2679	-29.3546	102.162	29.5949	-35.9676	172.891	26.9276	-55.0268	159.26	32.3717	-81.1253	129.434	37.0887	-86.0905	176.347	-3.11999	-56.7117	160.904	-5.71649	-84.207	123.605	1.47792	-87.7931	163.59	-18.5516	-41.7314	142.421	-26.5131	-68.9246	111.978	-12.6288	-63.8687	140.968	-36.4952	-26.6907	116.789	-32.2938	-39.1784	98.4591	-11.3601	-29.5134	178.32	-19.5529	2.29266	184.489	-17.0848	33.3517	186.495	16.9069	9.84663	
318	2.65	166.104	45.9638	18.9627	142.734	57.5872	-0.890216	120.664	54.8891	-27.1086	105.96	36.245	-34.6469	174.724	25.3124	-52.9803	158.704	32.1866	-80.6181	128.642	40.7096	-84.2773	174.181	-2.73157	-54.6164	161.058	1.10313	-82.3944	121.227	11.2555	-85.2211	159.773	-18.8384	-40.66	139.839	-18.1262	-68.5694	111.013	-1.57007	-62.8258	136.595	-31.554	-25.4643	111.296	-26.4829	-35.801	97.2354	-1.56148	-26.4827	177.126	-14.3015	4.65424	181.691	-15.1478	33.0473	188.251	13.0253	11.4834	
319	2.65833	175.758	48.7802	25.443	153.288	60.3125	-1.15253	133.068	63.976	-25.4424	112.77	48.7646	-36.1837	179.123	25.2874	-48.9168	167.907	34.5788	-77.093	138.46	52.4219	-83.0479	175.287	2.70412	-51.3853	158.783	6.65795	-82.9877	127.848	22.5039	-85.1523	159.078	-12.4328	-44.863	136.848	-13.0054	-65.593	109.771	9.09826	-58.7289	134.537	-22.511	-22.1513	111.41	-13.9829	-34.7641	98.9456	10.0364	-25.8692	175.988	-14.3273	4.67791	181.375	-18.0051	36.6338	192.882	12.3926	14.2334	
320	2.66667	187.45	47.4651	22.0757	167.957	63.5372	1.81196	147.919	68.9944	-21.6694	126.492	58.6392	-35.1788	186.065	25.3671	-49.5171	177.617	40.2116	-77.3965	152.777	57.0134	-83.0759	177.939	3.32202	-54.3829	164.073	9.96623	-81.2568	132.816	33.0569	-84.3445	156.015	-10.5074	-42.6347	134.888	-2.65886	-63.4508	113.424	23.0134	-57.3888	136.476	-12.5086	-22.4408	114.621	-0.460401	-34.3209	104.422	27.2279	-20.8792	177.238	-12.6929	6.0443	181.113	-16.7798	36.8806	200.51	10.8014	16.9397	
321	2.675	200.279	44.0501	27.7876	184.946	63.7036	4.45164	167.116	75.7482	-20.8414	142.335	67.4815	-34.5716	195.818	25.4399	-47.2156	185.447	40.4021	-76.4804	168.771	62.4527	-80.8978	177.565	2.00022	-53.336	165.241	12.9954	-79.014	140.21	41.0612	-84.0173	159.873	-0.846483	-41.0224	138.07	9.93972	-62.6806	124.615	35.7559	-57.3092	135.168	-1.29283	-25.1985	117.714	16.3939	-32.1534	117.866	43.344	-16.4328	178.471	-14.9847	6.54537	182.949	-19.4926	34.5029	201.929	3.2751	15.269	
322	2.68333	212.515	37.7139	26.973	199.834	58.1222	5.38096	186.563	75.1199	-18.8203	164.99	72.9758	-29.5709	203.752	21.4331	-44.6562	200.899	39.9217	-74.5728	184.405	62.4074	-79.1307	185.952	6.37018	-52.8905	175.434	20.3103	-79.9595	156.033	54.7309	-84.2832	161.693	3.94621	-42.9105	145.622	23.4855	-61.3899	137.078	52.5591	-52.7274	137.746	8.03423	-24.3162	130.795	30.6581	-30.6339	133.369	55.1171	-7.69158	174.859	-16.3891	5.62685	180.133	-21.9822	33.2472	205.771	-2.77933	19.3585	
323	2.69167	222.289	29.0614	31.1648	216.403	53.3922	6.69437	207.708	70.8883	-11.9544	185.056	77.0793	-29.3381	215.655	17.3618	-45.8428	213.334	35.9929	-72.9795	203.746	66.1359	-76.0433	191.599	5.47192	-49.569	186.737	26.1675	-79.2798	175.628	57.9906	-82.8912	169.847	7.35421	-40.0198	161.519	31.6709	-61.5394	152.419	59.3061	-51.1711	147.301	17.8807	-24.4099	146.4	44.7322	-28.1772	152.404	63.9313	-3.9176	182.192	-14.8228	5.11269	183.317	-22.4123	32.4789	213.356	-9.10831	20.359	
